<svg xmlns="http://www.w3.org/2000/svg" xmlns:xlink="http://www.w3.org/1999/xlink" xmlns:serif="http://www.serif.com/" viewBox="0 0 64 80" version="1.1" xml:space="preserve" style="" x="0px" y="0px" fill-rule="evenodd" clip-rule="evenodd" stroke-linejoin="round" stroke-miterlimit="2"><g transform="matrix(1.14833,0,0,1.14833,-4.86865,-4.6912)"><path d="M32,16C40.831,16 48,23.169 48,32C48,40.831 40.831,48 32,48C23.169,48 16,40.831 16,32C16,23.169 23.169,16 32,16ZM22,36.5C21.296,36.5 20.674,36.039 20.47,35.365C20.167,34.296 20,33.167 20,32C20,25.377 25.377,20 32,20C32,20 32,20 32,20C32.704,20 33.326,20.461 33.53,21.135C33.833,22.204 34,23.333 34,24.5C34,31.123 28.623,36.5 22,36.5C22,36.5 22,36.5 22,36.5Z"/></g><g transform="matrix(0.81199,0.81199,-0.81199,0.81199,31.956,-19.8498)"><path d="M29.917,7.882L29.917,11.59C29.917,12.74 30.85,13.673 32,13.673C33.15,13.673 34.083,12.74 34.083,11.59L34.083,7.882C34.083,6.732 33.15,5.798 32,5.798C30.85,5.798 29.917,6.732 29.917,7.882Z"/></g><g transform="matrix(0.81199,0.81199,-0.81199,0.81199,31.956,-19.8498)"><path d="M29.917,52.497L29.917,55.965C29.917,57.115 30.85,58.048 32,58.048C33.15,58.048 34.083,57.115 34.083,55.965L34.083,52.497C34.083,51.347 33.15,50.414 32,50.414C30.85,50.414 29.917,51.347 29.917,52.497Z"/></g><g transform="matrix(-0.81199,0.81199,-0.81199,-0.81199,83.9233,32.1175)"><path d="M29.917,8.055L29.917,11.571C29.917,12.72 30.85,13.654 32,13.654C33.15,13.654 34.083,12.72 34.083,11.571L34.083,8.055C34.083,6.905 33.15,5.971 32,5.971C30.85,5.971 29.917,6.905 29.917,8.055Z"/></g><g transform="matrix(-0.81199,0.81199,-0.81199,-0.81199,83.9233,32.1175)"><path d="M29.917,52.551L29.917,56.118C29.917,57.268 30.85,58.202 32,58.202C33.15,58.202 34.083,57.268 34.083,56.118L34.083,52.551C34.083,51.401 33.15,50.468 32,50.468C30.85,50.468 29.917,51.401 29.917,52.551Z"/></g><g transform="matrix(4.46215e-16,1.14833,-1.14833,4.46215e-16,68.6584,-4.64717)"><path d="M29.917,7.882L29.917,11.59C29.917,12.74 30.85,13.673 32,13.673C33.15,13.673 34.083,12.74 34.083,11.59L34.083,7.882C34.083,6.732 33.15,5.798 32,5.798C30.85,5.798 29.917,6.732 29.917,7.882Z"/></g><g transform="matrix(4.46215e-16,1.14833,-1.14833,4.46215e-16,68.6584,-4.64717)"><path d="M29.917,52.497L29.917,55.965C29.917,57.115 30.85,58.048 32,58.048C33.15,58.048 34.083,57.115 34.083,55.965L34.083,52.497C34.083,51.347 33.15,50.414 32,50.414C30.85,50.414 29.917,51.347 29.917,52.497Z"/></g><g transform="matrix(-1.14833,-1.72111e-15,1.72111e-15,-1.14833,68.6584,68.8458)"><path d="M29.917,8.055L29.917,11.571C29.917,12.72 30.85,13.654 32,13.654C33.15,13.654 34.083,12.72 34.083,11.571L34.083,8.055C34.083,6.905 33.15,5.971 32,5.971C30.85,5.971 29.917,6.905 29.917,8.055Z"/></g><g transform="matrix(-1.14833,-1.72111e-15,1.72111e-15,-1.14833,68.6584,68.8458)"><path d="M29.917,52.551L29.917,56.118C29.917,57.268 30.85,58.202 32,58.202C33.15,58.202 34.083,57.268 34.083,56.118L34.083,52.551C34.083,51.401 33.15,50.468 32,50.468C30.85,50.468 29.917,51.401 29.917,52.551Z"/></g><text x="0" y="79" fill="#000000" font-size="5px" font-weight="bold" font-family="'Helvetica Neue', Helvetica, Arial-Unicode, Arial, Sans-serif">Created by Soba Mustache</text><text x="0" y="84" fill="#000000" font-size="5px" font-weight="bold" font-family="'Helvetica Neue', Helvetica, Arial-Unicode, Arial, Sans-serif">from the Noun Project</text></svg>